<svg width="281" height="281" xmlns="http://www.w3.org/2000/svg">
 <style type="text/css">.st0{fill:#D10008;}
	.st1{fill:#D1C259;}
	.st2{fill:#FFE773;}
	.st3{fill:#FFF3A9;}
	.st4{opacity:0.1;}
	.st5{fill:#E09D61;}
	.st6{fill:#F4EAF0;}
	.st7{fill:#F9C18F;}
	.st8{fill:#FFCC99;}
	.st9{opacity:0.3;}
	.st10{fill:#009FE0;}
	.st11{opacity:0.2;}
	.st12{fill:#404040;}
	.st13{fill:#FFFFFF;}
	.st14{font-family:'ProximaNova-Black';}
	.st15{font-size:52.9219px;}
	.st16{font-family:'ProximaNova-RegularIt';}
	.st17{font-family:'ProximaNova-SemiboldIt';}
	.st18{font-size:29.3234px;}
	.st19{font-family:'ProximaNova-BoldIt';}
	.st20{font-size:30.7538px;}</style>

 <g>
  <title>background</title>
  <rect x="-1" y="-1" width="283" height="283" id="canvas_background" fill="none"/>
 </g>
 <g>
  <title>Layer 1</title>
  <g id="svg_91">
   <circle class="st1" cx="140.6" cy="141.800003" r="126.800003" id="svg_92"/>
   <g class="st4" id="svg_93">
    <path d="m267.4,138.8c-1.3,-0.1 -2.7,-0.1 -4.2,-0.1c-22.1,0.4 -33.9,20.9 -33.9,20.9c-22.2,2.8 -27,17.4 -27,17.4c-10.5,-13.7 -21.6,-19.2 -21.6,-19.2c-7.2,-10.5 -11.8,-16.7 -11.8,-16.7c3.2,-1.1 4.1,-3.3 4.1,-3.3c2.9,0.2 3.8,0.5 7.7,-3.1c3.9,-3.6 2.3,-6.3 2.3,-6.3c4.6,-4.3 0.2,-8.3 0.2,-8.3c5.2,-6.5 -0.7,-11.1 -0.7,-11.1c2,-16.6 -10.5,-12.8 -10.5,-12.8c-3.2,-9 -12.8,-4.1 -12.8,-4.1c-4.7,-5.2 -10.2,-1 -10.2,-1c-5.8,0.9 -6.5,5.8 -6.5,5.8c-8.2,-1.2 -7.9,6 -7.9,6c-3.9,2 -3.5,7.8 -3.5,7.8c-1.6,0.7 -4.5,3.1 -4.5,6.1c0,2.9 5.7,9.9 5.7,9.9c-0.8,3.3 1.3,5.6 1.3,5.6c-5.1,7.9 -18.2,21.9 -18.2,21.9c-18.2,4.9 -32.4,19.5 -32.4,19.5c-14.4,-36.1 -35.3,-34.2 -35.3,-34.2c-6.2,-23.1 -18.4,-32.9 -27.8,-37.1c-4,12.4 -6.2,25.6 -6.2,39.3c0,23 6.1,44.6 16.9,63.2c14.6,10.3 28.6,15.2 36.6,19.1c8.6,4.3 13.4,3.8 23.4,2.7c10,-1.1 8,-3.3 24.2,-19.3c16.2,-16 31.6,-45 31.6,-45s1.6,-2.9 2.5,-6.1c0,0 -0.2,4.3 -2,8.2c4.4,17.3 7.9,31.1 16.6,43.5c8.9,12.8 13.7,15 26.5,16.6c12.8,1.5 24.9,-2.9 24.9,-2.9c12.7,-2.2 22.7,-6.3 32.3,-11.3c12.8,-19.8 20.2,-43.3 20.2,-68.6c0,-1 0,-2 0,-3z" id="svg_94"/>
   </g>
   <g id="svg_95">
    <g id="svg_96">
     <path class="st5" d="m263.2,121.9c-22.1,0.4 -33.9,20.9 -33.9,20.9c-22.2,2.8 -27,17.4 -27,17.4c-10.5,-13.7 -21.6,-19.2 -21.6,-19.2c-7.2,-10.5 -11.8,-16.7 -11.8,-16.7c3.2,-1.1 4.1,-3.3 4.1,-3.3c2.9,0.2 3.8,0.5 7.7,-3.1c3.9,-3.6 2.3,-6.3 2.3,-6.3c4.6,-4.3 0.2,-8.3 0.2,-8.3c5.2,-6.5 -0.7,-11.1 -0.7,-11.1c2,-16.6 -10.5,-12.8 -10.5,-12.8c-3.2,-9 -12.8,-4.1 -12.8,-4.1c-4.7,-5.2 -10.2,-1 -10.2,-1c-5.8,0.9 -6.5,5.8 -6.5,5.8c-8.2,-1.2 -7.9,6 -7.9,6c-3.9,2 -3.5,7.8 -3.5,7.8c-1.6,0.7 -4.5,3.1 -4.5,6.1c0,2.9 5.7,9.9 5.7,9.9c-0.8,3.3 1.3,5.6 1.3,5.6c-5.1,7.9 -18.2,21.9 -18.2,21.9c-18.2,4.9 -32.4,19.5 -32.4,19.5c-14.4,-36.1 -35.3,-34.2 -35.3,-34.2c-11,-40.7 -40.4,-40.1 -40.4,-40.1c-5.7,2.3 -6.3,33.5 -6.3,48.7c0,15.2 1.3,21.5 2.4,27.2c1.1,5.7 8.4,15.6 24.1,27.5c15.7,11.9 31.1,17.1 39.7,21.4c8.6,4.3 13.4,3.8 23.4,2.7c10,-1.1 8,-3.3 24.2,-19.3c16.2,-16 31.6,-45 31.6,-45s1.6,-2.9 2.5,-6.1c0,0 -0.2,4.3 -2,8.2c4.4,17.3 7.9,31.1 16.6,43.5c8.9,12.8 13.7,15 26.5,16.6c12.8,1.5 24.9,-2.9 24.9,-2.9c14.3,-2.5 25.2,-7.4 36.1,-13.3c10.9,-5.9 18.8,-14.7 24.5,-36.6c5.8,-22.2 9.8,-33.8 -12.3,-33.3z" id="svg_97"/>
    </g>
    <path class="st8" d="m21.6,89.6c0,0 -1.4,4.2 -4.4,6.7c0,0 -0.5,2.8 -0.6,7.3c-0.1,4.5 28.7,22.5 21.2,55c0,0 6.8,16 25.6,19.4c0,0 2.7,-6.5 9.5,-5.5c6.8,1.1 3.7,13.6 10.6,12.5c0,0 -1.9,-6.3 4.1,-5.9c6,0.4 25.6,0.2 42.6,-22.9c17,-23.1 15.4,-34.7 25,-37c0,0 1.9,-1 2,-4.1c0.1,-3.1 1.3,-3.8 1.3,-3.8s-2.8,1.4 -6.2,-0.7s-7.4,-2.8 -10.4,-2.2c0,0 -13.7,21.3 -25.6,30.6c0,0 -13.7,2.8 -34.2,21.6c0,0 -10.6,-33.2 -36,-36.1c0,0.1 -7.2,-25.6 -24.5,-34.9z" id="svg_98"/>
    <path class="st8" d="m133.5,108.7c0,0 1.4,-1 1.7,-4.4c0,0 1.2,-0.4 2.1,-1.1c0,0 2.1,0.7 5.6,0.5c0,0 2.3,0.9 4.6,0.9c0,0 2.1,1.2 4,0.6c0,0 1.2,1.4 2.6,1.4c0,0 -0.9,3.1 1.6,3.1c2.5,0 3.1,-2.5 0.4,-4.4c0,0 -0.4,-1.5 -2,-2.4c0,0 -0.4,-2 -4.6,-3.1c-4.2,-1 -5.9,-1.4 -7.9,-1.8c-2,-0.4 -2.8,-1.3 -2.3,-2.2c0.4,-0.9 1.9,-0.9 3.6,-0.4c1.7,0.4 9,2.2 10.8,3.1c1.8,1 3.2,3.6 3.2,3.6s4.1,-1.9 6.3,5.3c0,0 3.6,-2.8 1.1,-5.7c-2.5,-2.9 -7.6,-6.5 -11.1,-8c-3.5,-1.6 -8.2,-2.8 -10.1,-3.3c-1.9,-0.4 -2.1,-3 -0.2,-2.9c1.9,0.1 17.6,4.7 23.6,12.6c0,0 2,-4.8 -5.5,-10.3c-7.6,-5.5 -10.1,-7 -11.8,-5.7c0,0 -4.5,-0.3 -2,-3.6c2.5,-3.3 7.9,-0.2 7.3,1.8c0,0 4,2.2 8.5,5.5c0,0 0.7,0 1.1,-0.8c0,0 -1.6,-2.4 -4,-4.8c0,0 -1.4,-4.1 -4,-5.9c-2.6,-1.8 -4.3,-0.2 -5.7,0.3s-6.2,-0.3 -6.3,6.2c0,0 -8.5,-2.5 -7.2,4.9c0,0 -5,1.7 -3.2,7.2c0,0 -4.9,2.6 -4.5,6.1c0.6,3.5 3.6,6.9 4.3,7.7z" id="svg_99"/>
    <path class="st8" d="m160.5,77.5c0,0 6.6,-3.2 9.1,2.9c0,0 -0.5,0.8 -1.5,1.3c0,0 -0.3,2.1 -2.9,2.4c0,0 -0.6,-1.3 -2.2,-2.7c0,-0.1 -0.6,-2.2 -2.5,-3.9z" id="svg_100"/>
    <path class="st8" d="m174.1,81.3c0,0 -0.7,2.5 -2.9,3.2c0,0 -1.1,3 -4.3,3.1c0,0 0.1,1.8 -1.2,2.7c0,0 9.5,7.5 2.9,12.3c0,0 1.3,4.8 -2.9,6.3c0,0 -0.1,1.9 1.4,2.9c0,0 6.8,-5.6 13.8,-5.4c0,0 0.9,0.9 2.2,1.3c0,0 0.3,-1.9 -1.5,-4.2c0,0 3.7,-5.7 0.2,-9.1c-1.7,-1.7 -4.1,0.9 -4.1,0.9l2.4,-4.3c0,0.2 1.7,-9 -6,-9.7z" id="svg_101"/>
    <path class="st8" d="m183.8,146.1c0,0 9.2,6.3 16.2,16.1c0,0 -0.3,7 -6.1,12.5c0,0 5.5,-2.4 9.5,-11.1c4,-8.7 9.7,-15.3 26.7,-18.3c0,0 7.6,-11.6 17.2,-16.4c0,0 -0.1,3.7 5.3,4.1c5.3,0.4 5.6,3.8 4.7,6.7c0,0 -4.7,3.6 -14.2,4.4c-9.6,0.8 -7.7,5.2 -4.3,5.6c3.4,0.3 6.5,2.2 8.3,6.1c0,0 -3.3,3.6 -10.4,5.3c0,0 -1.9,3.8 -8.8,4c-7,0.2 -7,4.5 -9.7,4.2s-6.2,-3.4 -8.7,-1c-2.5,2.5 -0.7,5.3 0.7,6.3c0,0 2.3,14.6 -14.6,21.1c-16.8,6.5 -28.1,-11.7 -26.7,-22.2c1.5,-10.5 -1,-14.1 4.1,-18.2c-0.1,0.2 12.2,-0.4 10.8,-9.2z" id="svg_102"/>
    <path class="st8" d="m181,112.4c0,0 1.1,2.5 -1.6,4.9c-2.7,2.4 -5.6,3 -6.9,2.3c0,0 -4.2,5.5 -6.7,2.3c-2.5,-3.1 -0.2,-6.5 3.5,-7c3.9,-0.4 9.8,-5.9 11.7,-2.5z" id="svg_103"/>
   </g>
  </g>
 </g>
</svg>